<?xml version="1.0" encoding="UTF-8"?>
<svg version="1.1" xmlns="http://www.w3.org/2000/svg" width="43" height="61">
<path d="M0 0 C14.19 0 28.38 0 43 0 C43 20.13 43 40.26 43 61 C28.81 61 14.62 61 0 61 C0 40.87 0 20.74 0 0 Z " fill="#FDFDFD" transform="translate(0,0)"/>
<path d="M0 0 C3.0625 1.9375 3.0625 1.9375 5 5 C5.99791452 10.02256153 5.82077829 13.70264076 3.0625 18.0625 C-0.94386665 20.59714012 -4.26833914 21.43318022 -9 21 C-12.271075 19.39419955 -14.22728507 18.05370218 -16.375 15.125 C-17.69601084 10.63356315 -17.48383625 7.89855304 -15.25 3.75 C-10.84770777 -1.63057939 -6.44773964 -1.72092695 0 0 Z " fill="#DFDFDF" transform="translate(29,22)"/>
<path d="M0 0 C0.66 0.66 1.32 1.32 2 2 C1.8125 5.5 1.8125 5.5 1 9 C-2 11 -2 11 -5.5625 10.75 C-9 10 -9 10 -11 8 C-11.375 5.0625 -11.375 5.0625 -11 2 C-7.81693261 -1.94700356 -4.59995823 -1.10739735 0 0 Z " fill="#080808" transform="translate(28,27)"/>
<path d="M0 0 C3.0625 1.9375 3.0625 1.9375 5 5 C5.99791452 10.02256153 5.82077829 13.70264076 3.0625 18.0625 C-0.94386665 20.59714012 -4.26833914 21.43318022 -9 21 C-12.271075 19.39419955 -14.22728507 18.05370218 -16.375 15.125 C-17.69601084 10.63356315 -17.48383625 7.89855304 -15.25 3.75 C-10.84770777 -1.63057939 -6.44773964 -1.72092695 0 0 Z M-14 5 C-15.42662219 7.85324437 -15.31033868 9.83454549 -15 13 C-13.20006226 15.69990662 -11.916227 17.5418865 -9 19 C-4.81855989 19.39447548 -2.69053952 19.45035186 0.875 17.125 C3.38666318 14.61333682 3.92153796 13.70615837 4.3125 10.1875 C3.90988067 6.08078279 3.14258715 4.68269634 0 2 C-5.78393467 0.14396126 -9.73433348 0.33442724 -14 5 Z " fill="#121212" transform="translate(29,22)"/>
<path d="M0 0 C1.43861294 0.08746284 2.87597508 0.19565348 4.3125 0.3125 C5.11300781 0.37050781 5.91351563 0.42851562 6.73828125 0.48828125 C9.4170136 1.09435023 10.38258968 1.80198085 12 4 C12.1875 7.1875 12.1875 7.1875 12 10 C11.484375 9.195625 10.96875 8.39125 10.4375 7.5625 C7.3382186 4.3042811 5.39254788 4.31945803 1 4 C0.01 3.67 -0.98 3.34 -2 3 C-1.34 2.01 -0.68 1.02 0 0 Z " fill="#EEEEEE" transform="translate(20,23)"/>
<path d="M0 0 C0.66 0 1.32 0 2 0 C1 2 0 4 -1 6 C-1.41527201 10.67181016 -0.69993991 13.17508513 2 17 C1.01 17 0.02 17 -1 17 C-3.09979708 14.35581109 -3.93944092 12.406611 -4.4375 9.0625 C-3.88372824 5.18609767 -2.44482363 3.02007624 0 0 Z " fill="#292929" transform="translate(16,23)"/>
<path d="M0 0 C0.66 0.33 1.32 0.66 2 1 C1.2884375 2.0828125 1.2884375 2.0828125 0.5625 3.1875 C-0.94152903 5.89475226 -1.56599182 7.96194275 -2 11 C-2.66 11 -3.32 11 -4 11 C-4.36630156 7.06225823 -4.30233203 5.43460229 -2 2.125 C-1.34 1.42375 -0.68 0.7225 0 0 Z " fill="#E6E6E6" transform="translate(18,24)"/>
</svg>
